#!OML:ASF I:\golf\golf\golf 2\Subject 1\2002-09-07\Subject1.ASF
:FULLY-SPECIFIED
:DEGREES
367
root -7.13358 18.0882 -3.8834 -169.653 8.67803 -174.754
lowerback -7.62059 10.7896 13.5776
upperback -9.94605 16.7654 4.55539
thorax -4.57469 8.7602 -1.61137
lowerneck -14.364 -16.0073 -2.0856
upperneck 19.2295 -23.2456 2.31885
head 8.86529 -11.18 -1.75733
rclavicle 6.91771e-014 -7.31528e-014
rhumerus 84.6998 32.6954 -62.5632
rradius 66.9714
rwrist -7.66897
rhand -44.3533 36.7006
rfingers 7.12502
rthumb -17.1612 7.43845
lclavicle 6.91771e-014 -7.31528e-014
lhumerus 54.6532 7.84974 51.1876
lradius 68.6498
lwrist 11.9488
lhand -22.2617 16.5991
lfingers 7.12502
lthumb -175.844 -493.462
rfemur 12.5431 -4.1566 16.574
rtibia 22.006
rfoot 31.6534 -29.3709
rtoes 23.6801
lfemur -23.3318 -19.3027 -13.4835
ltibia 21.8006
lfoot 43.7903 -42.6983
ltoes 47.895
368
root -7.12732 18.0985 -3.8668 -169.639 8.84553 -174.802
lowerback -7.50653 10.7717 13.4198
upperback -9.84192 16.6847 4.49833
thorax -4.53476 8.7075 -1.61144
lowerneck -14.6267 -15.9016 -1.79425
upperneck 19.3406 -23.1278 2.18032
head 8.8939 -11.1085 -1.84494
rclavicle 9.06458e-014 -3.02153e-014
rhumerus 84.0175 32.5341 -62.8031
rradius 66.5141
rwrist -7.98747
rhand -44.201 36.4235
rfingers 7.12502
rthumb -17.0147 7.14863
lclavicle 9.06458e-014 -3.02153e-014
lhumerus 54.6933 7.14631 51.2467
lradius 67.8974
lwrist 12.4077
lhand -22.0123 16.4719
lfingers 7.12502
lthumb -175.603 -493.594
rfemur 12.3726 -4.09402 16.4623
rtibia 22.1724
rfoot 31.5271 -29.4103
rtoes 24.1525
lfemur -23.2454 -19.2961 -13.4714
ltibia 21.6778
lfoot 41.4273 -45.176
ltoes 44.911
369
root -7.11946 18.1089 -3.85145 -169.571 8.9776 -174.709
lowerback -7.52664 10.7093 13.3125
upperback -9.72907 16.5499 4.54676
thorax -4.4448 8.64382 -1.50689
lowerneck -14.8721 -15.758 -1.58481
upperneck 19.5533 -22.9625 2.04325
head 8.96441 -11.0181 -1.92278
rclavicle 6.32135e-014 -6.83819e-014
rhumerus 83.3371 32.5124 -63.1186
rradius 66.0679
rwrist -8.36959
rhand -43.7941 36.1814
rfingers 7.12502
rthumb -16.623 6.87327
lclavicle 6.32135e-014 -6.83819e-014
lhumerus 54.6681 6.46945 51.4377
lradius 67.0959
lwrist 12.6282
lhand -22.0415 16.452
lfingers 7.12502
lthumb -175.631 -493.613
rfemur 12.1811 -4.04575 16.5222
rtibia 22.3212
rfoot 31.4853 -29.1831
rtoes 23.807
lfemur -23.2703 -19.3387 -13.2497
ltibia 21.5771
lfoot 39.9209 -46.529
ltoes 42.9587
370
root -7.11188 18.1122 -3.83245 -169.514 9.09277 -174.567
lowerback -7.51346 10.6636 13.2683
upperback -9.60093 16.436 4.59336
thorax -4.33892 8.58642 -1.43534
lowerneck -15.0402 -15.6154 -1.40743
upperneck 19.6302 -22.8174 2.06663
head 9.0007 -10.9289 -1.93773
rclavicle -3.49861e-014 -1.90833e-014
rhumerus 82.7403 32.416 -63.3677
rradius 65.6115
rwrist -8.84776
rhand -43.2332 35.9228
rfingers 7.12502
rthumb -16.0829 6.57024
lclavicle -3.49861e-014 -1.90833e-014
lhumerus 54.5832 5.70882 51.5775
lradius 66.3066
lwrist 12.2599
lhand -22.5197 16.3938
lfingers 7.12502
lthumb -176.093 -493.662
rfemur 11.9914 -4.00575 16.6432
rtibia 22.4883
rfoot 31.6995 -28.6206
rtoes 22.6543
lfemur -23.3111 -19.1884 -13.0641
ltibia 21.4796
lfoot 41.2238 -44.9335
ltoes 44.813
371
root -7.10532 18.1148 -3.81145 -169.486 9.22533 -174.458
lowerback -7.33433 10.6571 13.2544
upperback -9.52126 16.4049 4.57681
thorax -4.34175 8.55568 -1.47574
lowerneck -15.1101 -15.5359 -1.17715
upperneck 19.5182 -22.7404 2.08884
head 8.94923 -10.8769 -1.9458
rclavicle 5.12864e-014 -3.65764e-014
rhumerus 82.1413 32.2472 -63.5942
rradius 65.0366
rwrist -9.11619
rhand -42.9501 35.695
rfingers 7.12502
rthumb -15.8103 6.32059
lclavicle 5.12864e-014 -3.65764e-014
lhumerus 54.5939 4.9856 51.7777
lradius 65.8128
lwrist 12.9996
lhand -22.0747 16.8772
lfingers 7.12502
lthumb -175.663 -493.187
rfemur 11.7833 -3.9141 16.7363
rtibia 22.7235
rfoot 31.8264 -28.1966
rtoes 21.8437
lfemur -23.2908 -18.9695 -12.9504
ltibia 21.33
lfoot 42.2759 -43.571
ltoes 46.3595
372
root -7.09792 18.117 -3.79157 -169.521 9.34973 -174.477
lowerback -7.1194 10.6076 13.1182
upperback -9.42978 16.3205 4.57332
thorax -4.38549 8.5006 -1.46045
lowerneck -15.0744 -15.4646 -1.11685
upperneck 19.3453 -22.6533 2.2024
head 8.89023 -10.8256 -1.89405
rclavicle -1.00983e-013 -1.20861e-013
rhumerus 81.5576 32.2105 -63.7349
rradius 64.5071
rwrist -9.08635
rhand -43.3162 34.7649
rfingers 7.12502
rthumb -16.1628 5.41877
lclavicle -1.00983e-013 -1.20861e-013
lhumerus 54.4379 4.28285 51.8629
lradius 65.291
lwrist 13.238
lhand -22.0105 17.2677
lfingers 7.12502
lthumb -175.601 -492.798
rfemur 11.6575 -3.86923 16.676
rtibia 22.9416
rfoot 31.8729 -27.8251
rtoes 21.3829
lfemur -23.2257 -18.868 -12.946
ltibia 21.2045
lfoot 42.0955 -43.6849
ltoes 46.2035
373
root -7.09114 18.1168 -3.77337 -169.581 9.47428 -174.558
lowerback -6.94881 10.5251 12.9394
upperback -9.31817 16.1705 4.55702
thorax -4.39321 8.41384 -1.43086
lowerneck -15.1164 -15.3332 -1.25701
upperneck 19.3564 -22.5308 2.52624
head 8.95877 -10.7408 -1.7746
rclavicle 3.4191e-014 7.79236e-014
rhumerus 81.0218 32.2572 -63.875
rradius 64.0749
rwrist -9.03596
rhand -43.7168 33.4975
rfingers 7.12502
rthumb -16.5486 4.18309
lclavicle 3.4191e-014 7.79236e-014
lhumerus 54.1279 3.61263 51.8297
lradius 64.8014
lwrist 13.1547
lhand -22.2288 17.3993
lfingers 7.12502
lthumb -175.812 -492.662
rfemur 11.599 -3.94256 16.4861
rtibia 23.1013
rfoot 31.9956 -27.1067
rtoes 20.2304
lfemur -23.1817 -18.8019 -13.0164
ltibia 21.139
lfoot 42.1195 -43.5897
ltoes 46.2344
